<svg width="5120" height="512" viewBox="0 0 5120 512" fill="none" xmlns="http://www.w3.org/2000/svg">
<mask id="path-1-inside-1_39_15" fill="white">
<path d="M64 448V384H0V320H128V384H320V256H64V192H0V64H64V0H384V64H448V128H320V64H128V192H384V256H448V384H384V448H64ZM512 448V0H640V128H896V192H960V448H832V192H640V448H512ZM1088 448V384H1024V320H1088V256H1344V192H1088V128H1408V192H1472V448H1088ZM1152 384H1344V320H1152V384ZM1728 192H1792V256H1728V448H1600V128H1728V192ZM1984 128V192H1792V128H1984ZM2112 448V384H2048V192H2112V128H2432V192H2496V320H2176V384H2432V448H2112ZM2176 256H2368V192H2176V256ZM2624 448V384H2560V320H2688V384H2880V256H2624V192H2560V64H2624V0H2944V64H3008V128H2880V64H2688V192H2944V256H3008V384H2944V448H2624ZM3072 512V128H3456V192H3520V320H3456V384H3200V512H3072ZM3200 320H3392V192H3200V320ZM3648 448V384H3776V64H3712V0H3904V384H4032V448H3648ZM4288 64V0H4416V64H4288ZM4160 448V384H4288V192H4224V128H4416V384H4544V448H4160ZM4800 448V192H4672V128H4800V0H4928V128H5056V192H4928V448H4800Z"/>
</mask>
<path d="M64 448V384H0V320H128V384H320V256H64V192H0V64H64V0H384V64H448V128H320V64H128V192H384V256H448V384H384V448H64ZM512 448V0H640V128H896V192H960V448H832V192H640V448H512ZM1088 448V384H1024V320H1088V256H1344V192H1088V128H1408V192H1472V448H1088ZM1152 384H1344V320H1152V384ZM1728 192H1792V256H1728V448H1600V128H1728V192ZM1984 128V192H1792V128H1984ZM2112 448V384H2048V192H2112V128H2432V192H2496V320H2176V384H2432V448H2112ZM2176 256H2368V192H2176V256ZM2624 448V384H2560V320H2688V384H2880V256H2624V192H2560V64H2624V0H2944V64H3008V128H2880V64H2688V192H2944V256H3008V384H2944V448H2624ZM3072 512V128H3456V192H3520V320H3456V384H3200V512H3072ZM3200 320H3392V192H3200V320ZM3648 448V384H3776V64H3712V0H3904V384H4032V448H3648ZM4288 64V0H4416V64H4288ZM4160 448V384H4288V192H4224V128H4416V384H4544V448H4160ZM4800 448V192H4672V128H4800V0H4928V128H5056V192H4928V448H4800Z" fill="#F0C05A"/>
<path d="M64 448H40V472H64V448ZM64 384H88V360H64V384ZM0 384H-24V408H0V384ZM0 320V296H-24V320H0ZM128 320H152V296H128V320ZM128 384H104V408H128V384ZM320 384V408H344V384H320ZM320 256H344V232H320V256ZM64 256H40V280H64V256ZM64 192H88V168H64V192ZM0 192H-24V216H0V192ZM0 64V40H-24V64H0ZM64 64V88H88V64H64ZM64 0V-24H40V0H64ZM384 0H408V-24H384V0ZM384 64H360V88H384V64ZM448 64H472V40H448V64ZM448 128V152H472V128H448ZM320 128H296V152H320V128ZM320 64H344V40H320V64ZM128 64V40H104V64H128ZM128 192H104V216H128V192ZM384 192H408V168H384V192ZM384 256H360V280H384V256ZM448 256H472V232H448V256ZM448 384V408H472V384H448ZM384 384V360H360V384H384ZM384 448V472H408V448H384ZM88 448V384H40V448H88ZM64 360H0V408H64V360ZM24 384V320H-24V384H24ZM0 344H128V296H0V344ZM104 320V384H152V320H104ZM128 408H320V360H128V408ZM344 384V256H296V384H344ZM320 232H64V280H320V232ZM88 256V192H40V256H88ZM64 168H0V216H64V168ZM24 192V64H-24V192H24ZM0 88H64V40H0V88ZM88 64V0H40V64H88ZM64 24H384V-24H64V24ZM360 0V64H408V0H360ZM384 88H448V40H384V88ZM424 64V128H472V64H424ZM448 104H320V152H448V104ZM344 128V64H296V128H344ZM320 40H128V88H320V40ZM104 64V192H152V64H104ZM128 216H384V168H128V216ZM360 192V256H408V192H360ZM384 280H448V232H384V280ZM424 256V384H472V256H424ZM448 360H384V408H448V360ZM360 384V448H408V384H360ZM384 424H64V472H384V424ZM512 448H488V472H512V448ZM512 0V-24H488V0H512ZM640 0H664V-24H640V0ZM640 128H616V152H640V128ZM896 128H920V104H896V128ZM896 192H872V216H896V192ZM960 192H984V168H960V192ZM960 448V472H984V448H960ZM832 448H808V472H832V448ZM832 192H856V168H832V192ZM640 192V168H616V192H640ZM640 448V472H664V448H640ZM536 448V0H488V448H536ZM512 24H640V-24H512V24ZM616 0V128H664V0H616ZM640 152H896V104H640V152ZM872 128V192H920V128H872ZM896 216H960V168H896V216ZM936 192V448H984V192H936ZM960 424H832V472H960V424ZM856 448V192H808V448H856ZM832 168H640V216H832V168ZM616 192V448H664V192H616ZM640 424H512V472H640V424ZM1088 448H1064V472H1088V448ZM1088 384H1112V360H1088V384ZM1024 384H1000V408H1024V384ZM1024 320V296H1000V320H1024ZM1088 320V344H1112V320H1088ZM1088 256V232H1064V256H1088ZM1344 256V280H1368V256H1344ZM1344 192H1368V168H1344V192ZM1088 192H1064V216H1088V192ZM1088 128V104H1064V128H1088ZM1408 128H1432V104H1408V128ZM1408 192H1384V216H1408V192ZM1472 192H1496V168H1472V192ZM1472 448V472H1496V448H1472ZM1152 384H1128V408H1152V384ZM1344 384V408H1368V384H1344ZM1344 320H1368V296H1344V320ZM1152 320V296H1128V320H1152ZM1112 448V384H1064V448H1112ZM1088 360H1024V408H1088V360ZM1048 384V320H1000V384H1048ZM1024 344H1088V296H1024V344ZM1112 320V256H1064V320H1112ZM1088 280H1344V232H1088V280ZM1368 256V192H1320V256H1368ZM1344 168H1088V216H1344V168ZM1112 192V128H1064V192H1112ZM1088 152H1408V104H1088V152ZM1384 128V192H1432V128H1384ZM1408 216H1472V168H1408V216ZM1448 192V448H1496V192H1448ZM1472 424H1088V472H1472V424ZM1152 408H1344V360H1152V408ZM1368 384V320H1320V384H1368ZM1344 296H1152V344H1344V296ZM1128 320V384H1176V320H1128ZM1728 192H1704V216H1728V192ZM1792 192H1816V168H1792V192ZM1792 256V280H1816V256H1792ZM1728 256V232H1704V256H1728ZM1728 448V472H1752V448H1728ZM1600 448H1576V472H1600V448ZM1600 128V104H1576V128H1600ZM1728 128H1752V104H1728V128ZM1984 128H2008V104H1984V128ZM1984 192V216H2008V192H1984ZM1792 192H1768V216H1792V192ZM1792 128V104H1768V128H1792ZM1728 216H1792V168H1728V216ZM1768 192V256H1816V192H1768ZM1792 232H1728V280H1792V232ZM1704 256V448H1752V256H1704ZM1728 424H1600V472H1728V424ZM1624 448V128H1576V448H1624ZM1600 152H1728V104H1600V152ZM1704 128V192H1752V128H1704ZM1960 128V192H2008V128H1960ZM1984 168H1792V216H1984V168ZM1816 192V128H1768V192H1816ZM1792 152H1984V104H1792V152ZM2112 448H2088V472H2112V448ZM2112 384H2136V360H2112V384ZM2048 384H2024V408H2048V384ZM2048 192V168H2024V192H2048ZM2112 192V216H2136V192H2112ZM2112 128V104H2088V128H2112ZM2432 128H2456V104H2432V128ZM2432 192H2408V216H2432V192ZM2496 192H2520V168H2496V192ZM2496 320V344H2520V320H2496ZM2176 320V296H2152V320H2176ZM2176 384H2152V408H2176V384ZM2432 384H2456V360H2432V384ZM2432 448V472H2456V448H2432ZM2176 256H2152V280H2176V256ZM2368 256V280H2392V256H2368ZM2368 192H2392V168H2368V192ZM2176 192V168H2152V192H2176ZM2136 448V384H2088V448H2136ZM2112 360H2048V408H2112V360ZM2072 384V192H2024V384H2072ZM2048 216H2112V168H2048V216ZM2136 192V128H2088V192H2136ZM2112 152H2432V104H2112V152ZM2408 128V192H2456V128H2408ZM2432 216H2496V168H2432V216ZM2472 192V320H2520V192H2472ZM2496 296H2176V344H2496V296ZM2152 320V384H2200V320H2152ZM2176 408H2432V360H2176V408ZM2408 384V448H2456V384H2408ZM2432 424H2112V472H2432V424ZM2176 280H2368V232H2176V280ZM2392 256V192H2344V256H2392ZM2368 168H2176V216H2368V168ZM2152 192V256H2200V192H2152ZM2624 448H2600V472H2624V448ZM2624 384H2648V360H2624V384ZM2560 384H2536V408H2560V384ZM2560 320V296H2536V320H2560ZM2688 320H2712V296H2688V320ZM2688 384H2664V408H2688V384ZM2880 384V408H2904V384H2880ZM2880 256H2904V232H2880V256ZM2624 256H2600V280H2624V256ZM2624 192H2648V168H2624V192ZM2560 192H2536V216H2560V192ZM2560 64V40H2536V64H2560ZM2624 64V88H2648V64H2624ZM2624 0V-24H2600V0H2624ZM2944 0H2968V-24H2944V0ZM2944 64H2920V88H2944V64ZM3008 64H3032V40H3008V64ZM3008 128V152H3032V128H3008ZM2880 128H2856V152H2880V128ZM2880 64H2904V40H2880V64ZM2688 64V40H2664V64H2688ZM2688 192H2664V216H2688V192ZM2944 192H2968V168H2944V192ZM2944 256H2920V280H2944V256ZM3008 256H3032V232H3008V256ZM3008 384V408H3032V384H3008ZM2944 384V360H2920V384H2944ZM2944 448V472H2968V448H2944ZM2648 448V384H2600V448H2648ZM2624 360H2560V408H2624V360ZM2584 384V320H2536V384H2584ZM2560 344H2688V296H2560V344ZM2664 320V384H2712V320H2664ZM2688 408H2880V360H2688V408ZM2904 384V256H2856V384H2904ZM2880 232H2624V280H2880V232ZM2648 256V192H2600V256H2648ZM2624 168H2560V216H2624V168ZM2584 192V64H2536V192H2584ZM2560 88H2624V40H2560V88ZM2648 64V0H2600V64H2648ZM2624 24H2944V-24H2624V24ZM2920 0V64H2968V0H2920ZM2944 88H3008V40H2944V88ZM2984 64V128H3032V64H2984ZM3008 104H2880V152H3008V104ZM2904 128V64H2856V128H2904ZM2880 40H2688V88H2880V40ZM2664 64V192H2712V64H2664ZM2688 216H2944V168H2688V216ZM2920 192V256H2968V192H2920ZM2944 280H3008V232H2944V280ZM2984 256V384H3032V256H2984ZM3008 360H2944V408H3008V360ZM2920 384V448H2968V384H2920ZM2944 424H2624V472H2944V424ZM3072 512H3048V536H3072V512ZM3072 128V104H3048V128H3072ZM3456 128H3480V104H3456V128ZM3456 192H3432V216H3456V192ZM3520 192H3544V168H3520V192ZM3520 320V344H3544V320H3520ZM3456 320V296H3432V320H3456ZM3456 384V408H3480V384H3456ZM3200 384V360H3176V384H3200ZM3200 512V536H3224V512H3200ZM3200 320H3176V344H3200V320ZM3392 320V344H3416V320H3392ZM3392 192H3416V168H3392V192ZM3200 192V168H3176V192H3200ZM3096 512V128H3048V512H3096ZM3072 152H3456V104H3072V152ZM3432 128V192H3480V128H3432ZM3456 216H3520V168H3456V216ZM3496 192V320H3544V192H3496ZM3520 296H3456V344H3520V296ZM3432 320V384H3480V320H3432ZM3456 360H3200V408H3456V360ZM3176 384V512H3224V384H3176ZM3200 488H3072V536H3200V488ZM3200 344H3392V296H3200V344ZM3416 320V192H3368V320H3416ZM3392 168H3200V216H3392V168ZM3176 192V320H3224V192H3176ZM3648 448H3624V472H3648V448ZM3648 384V360H3624V384H3648ZM3776 384V408H3800V384H3776ZM3776 64H3800V40H3776V64ZM3712 64H3688V88H3712V64ZM3712 0V-24H3688V0H3712ZM3904 0H3928V-24H3904V0ZM3904 384H3880V408H3904V384ZM4032 384H4056V360H4032V384ZM4032 448V472H4056V448H4032ZM3672 448V384H3624V448H3672ZM3648 408H3776V360H3648V408ZM3800 384V64H3752V384H3800ZM3776 40H3712V88H3776V40ZM3736 64V0H3688V64H3736ZM3712 24H3904V-24H3712V24ZM3880 0V384H3928V0H3880ZM3904 408H4032V360H3904V408ZM4008 384V448H4056V384H4008ZM4032 424H3648V472H4032V424ZM4288 64H4264V88H4288V64ZM4288 0V-24H4264V0H4288ZM4416 0H4440V-24H4416V0ZM4416 64V88H4440V64H4416ZM4160 448H4136V472H4160V448ZM4160 384V360H4136V384H4160ZM4288 384V408H4312V384H4288ZM4288 192H4312V168H4288V192ZM4224 192H4200V216H4224V192ZM4224 128V104H4200V128H4224ZM4416 128H4440V104H4416V128ZM4416 384H4392V408H4416V384ZM4544 384H4568V360H4544V384ZM4544 448V472H4568V448H4544ZM4312 64V0H4264V64H4312ZM4288 24H4416V-24H4288V24ZM4392 0V64H4440V0H4392ZM4416 40H4288V88H4416V40ZM4184 448V384H4136V448H4184ZM4160 408H4288V360H4160V408ZM4312 384V192H4264V384H4312ZM4288 168H4224V216H4288V168ZM4248 192V128H4200V192H4248ZM4224 152H4416V104H4224V152ZM4392 128V384H4440V128H4392ZM4416 408H4544V360H4416V408ZM4520 384V448H4568V384H4520ZM4544 424H4160V472H4544V424ZM4800 448H4776V472H4800V448ZM4800 192H4824V168H4800V192ZM4672 192H4648V216H4672V192ZM4672 128V104H4648V128H4672ZM4800 128V152H4824V128H4800ZM4800 0V-24H4776V0H4800ZM4928 0H4952V-24H4928V0ZM4928 128H4904V152H4928V128ZM5056 128H5080V104H5056V128ZM5056 192V216H5080V192H5056ZM4928 192V168H4904V192H4928ZM4928 448V472H4952V448H4928ZM4824 448V192H4776V448H4824ZM4800 168H4672V216H4800V168ZM4696 192V128H4648V192H4696ZM4672 152H4800V104H4672V152ZM4824 128V0H4776V128H4824ZM4800 24H4928V-24H4800V24ZM4904 0V128H4952V0H4904ZM4928 152H5056V104H4928V152ZM5032 128V192H5080V128H5032ZM5056 168H4928V216H5056V168ZM4904 192V448H4952V192H4904ZM4928 424H4800V472H4928V424Z" fill="#F5DF4D" mask="url(#path-1-inside-1_39_15)"/>
</svg>
